<svg xmlns="http://www.w3.org/2000/svg" xmlns:xlink="http://www.w3.org/1999/xlink" width="2000" zoomAndPan="magnify" viewBox="0 0 1500 1499.999933" height="2000" preserveAspectRatio="xMidYMid meet" version="1.0"><defs><clipPath id="fca8fc5ef2"><path d="M 591 734 L 726 734 L 726 1225.304688 L 591 1225.304688 Z M 591 734 " clip-rule="nonzero"/></clipPath><clipPath id="965bd0bf7a"><path d="M 747 524 L 985.984375 524 L 985.984375 833 L 747 833 Z M 747 524 " clip-rule="nonzero"/></clipPath></defs><rect x="-150" width="1800" fill="#ffffff" y="-149.999993" height="1799.99992" fill-opacity="1"/><rect x="-150" width="1800" fill="#ffffff" y="-149.999993" height="1799.99992" fill-opacity="1"/><g clip-path="url(#fca8fc5ef2)"><path fill="#040505" d="M 608.417969 757.816406 C 603.171875 756.832031 599.316406 750.773438 601.242188 744.992188 L 601.421875 744.464844 L 602.050781 744.097656 C 606.398438 741.769531 612.09375 742.355469 615.992188 745.980469 L 616.128906 746.117188 L 616.308594 746.429688 C 620.296875 752.746094 618.191406 761.578125 611.421875 765.605469 C 604.472656 769.367188 595.460938 766.867188 591.425781 759.515625 L 591.019531 758.757812 L 591.066406 757.496094 C 591.246094 749.789062 594.5625 742.308594 600.03125 736.710938 L 602.183594 734.464844 L 605.1875 735.773438 C 616.039062 740.476562 624.917969 749.480469 630.207031 759.5625 C 635.808594 769.644531 638.679688 780.527344 640.652344 791.195312 C 644.28125 812.839844 644.820312 833.886719 649.9375 854.546875 C 659.351562 896.214844 679.886719 934.035156 696.65625 973.457031 C 713.113281 1012.753906 727.050781 1055.320312 725.613281 1099.410156 C 724.144531 1143.226562 712.171875 1184.988281 698.183594 1225.304688 L 697.058594 1225.042969 C 704.632812 1182.96875 714.367188 1141.160156 713.917969 1099.316406 C 713.828125 1057.554688 702.53125 1016.699219 687.953125 976.769531 C 673.882812 936.625 658.101562 896.753906 645.679688 855.667969 C 639.035156 835.195312 635.949219 813.460938 631.195312 793.214844 C 626.574219 773.175781 619.132812 752.703125 601.332031 744.191406 L 606.488281 743.25 C 602.410156 747.011719 599.808594 752.4375 599.089844 758.035156 L 598.730469 756.0625 C 599.765625 759.25 604.964844 761.441406 608.371094 759.777344 C 611.867188 758.355469 613.886719 752.746094 612.003906 748.941406 L 612.363281 749.433594 C 610.570312 747.058594 606.625 745.898438 603.53125 747.152344 L 604.335938 746.253906 C 602.632812 749.617188 604.472656 755.078125 608.730469 756.695312 L 608.417969 757.816406 " fill-opacity="1" fill-rule="nonzero"/></g><path fill="#040505" d="M 567.4375 699.699219 C 563.402344 693.160156 559.636719 686.976562 555.105469 682.230469 C 550.578125 677.480469 545.152344 674.613281 539.414062 673.351562 C 533.898438 671.746094 526.769531 673.304688 522.824219 679.316406 C 518.835938 685.144531 519.101562 692.886719 521.839844 699.160156 C 527.800781 711.617188 537.441406 722.144531 548.382812 730.300781 C 559.140625 738.859375 571.5625 745.316406 585.953125 749.972656 L 585.910156 751.140625 C 570.621094 753.78125 554.121094 749.296875 541.074219 740.164062 C 534.527344 735.542969 529.101562 729.453125 524.617188 722.867188 C 520.042969 716.363281 516.726562 708.792969 515.742188 700.730469 C 514.664062 692.667969 515.917969 684.464844 519.640625 677.433594 C 521.480469 673.9375 523.945312 670.4375 527.53125 667.847656 C 531.164062 665.289062 535.738281 663.808594 540.3125 663.855469 C 549.410156 663.992188 557.574219 669.773438 562.101562 676.757812 C 566.765625 683.753906 568.421875 691.679688 568.558594 699.390625 L 567.4375 699.699219 " fill-opacity="1" fill-rule="nonzero"/><path fill="#040505" d="M 618.101562 747.863281 C 614.066406 737.160156 612.050781 725.734375 611.78125 714.21875 C 611.691406 702.347656 612.453125 692.886719 607.746094 684.203125 C 602.855469 675.199219 595.953125 665.691406 587.746094 658.476562 C 579.453125 651.132812 569.589844 645.753906 559.546875 641.40625 L 565.148438 639.03125 C 562.234375 657.007812 570.214844 675.644531 573.757812 695.269531 C 575.820312 704.847656 577.253906 715.113281 578.960938 724.347656 C 580.796875 733.445312 583.621094 742.894531 592.589844 747.289062 L 592.277344 748.402344 C 587.074219 748.046875 581.917969 744.867188 578.464844 740.691406 C 575.015625 736.484375 572.546875 731.6875 570.574219 726.8125 C 566.988281 716.859375 564.613281 707.683594 562.054688 697.953125 C 559.589844 688.273438 557.527344 678.730469 555.960938 668.511719 C 554.476562 658.476562 553.808594 647.324219 557.664062 637.015625 L 559.546875 632.046875 L 563.3125 634.59375 C 572.816406 641.144531 581.425781 648.574219 590.035156 655.882812 C 598.507812 663.5 607.566406 669.992188 615.230469 679.453125 C 619.179688 684.203125 621.554688 691.097656 621.824219 697.230469 C 622.046875 703.414062 621.417969 709.117188 620.882812 714.484375 C 619.941406 725.335938 619.492188 736.3125 619.222656 747.691406 L 618.101562 747.863281 " fill-opacity="1" fill-rule="nonzero"/><path fill="#040505" d="M 597.65625 736.4375 C 594.292969 732.550781 593.261719 729.851562 593.980469 726.769531 C 594.605469 725.242188 596.265625 723.488281 596.402344 721.835938 C 596.535156 720.125 595.503906 718.660156 594.160156 717.398438 C 591.15625 714.976562 589.539062 712.554688 588.195312 709.964844 C 587.34375 707.050781 587.03125 704 587.882812 699.113281 L 588.777344 698.402344 C 593.800781 698.757812 597.074219 701.40625 599.179688 704.539062 C 600.792969 707.898438 601.558594 711.800781 600.257812 715.824219 C 599.71875 717.796875 599.359375 719.597656 600.078125 721.25 C 600.660156 722.867188 602.679688 724.429688 603.53125 726.273438 C 604.605469 729.855469 603.261719 733.84375 598.820312 736.621094 L 597.65625 736.4375 " fill-opacity="1" fill-rule="nonzero"/><path fill="#040505" d="M 544.660156 705.617188 C 549.816406 707.992188 552.507812 710.503906 553.941406 714.171875 C 554.433594 716.148438 554.164062 718.832031 555.242188 720.621094 C 556.226562 722.464844 558.199219 723.453125 560.308594 724.074219 C 564.746094 725.105469 568.0625 726.769531 571.292969 728.648438 C 574.296875 730.976562 576.988281 733.707031 579.8125 738.457031 L 579.453125 739.582031 C 574.296875 741.816406 569.320312 741.058594 565.105469 739.179688 C 561.113281 736.804688 557.664062 733.398438 556.003906 728.695312 C 555.105469 726.402344 554.164062 724.394531 552.417969 723.039062 C 550.757812 721.652344 547.933594 721.078125 546.050781 719.597656 C 542.730469 716.363281 541.429688 711.398438 543.582031 706.019531 L 544.660156 705.617188 " fill-opacity="1" fill-rule="nonzero"/><path fill="#040505" d="M 770.675781 333.777344 C 780.410156 325.667969 791.164062 318.722656 802.691406 313.210938 C 808.429688 310.476562 814.351562 308.101562 820.445312 306.085938 C 826.230469 304.429688 833.140625 301.15625 840.488281 305.011719 C 843.851562 306.984375 845.960938 311.148438 845.871094 314.867188 C 845.917969 318.589844 844.835938 321.949219 843.496094 325.039062 C 840.671875 331.355469 836.769531 336.195312 833.496094 341.574219 L 812.824219 373.339844 L 771.445312 436.78125 C 764.535156 447.21875 757.628906 458.207031 748.664062 467.875 C 739.960938 477.554688 727.992188 486.203125 713.6875 487.855469 L 706.960938 488.625 L 708.671875 481.996094 C 721.046875 434.003906 735.625 386.511719 753.242188 340.144531 C 757.410156 328.667969 762.515625 316.707031 766.28125 305.773438 C 767.945312 300.351562 768.75 294.707031 767.359375 290.496094 C 766.015625 286.28125 762.160156 283.640625 757.179688 283.324219 C 746.871094 282.652344 736.105469 289.644531 726.878906 296.855469 C 717.5 304.386719 709.027344 313.300781 699.707031 321.722656 C 690.46875 330.058594 679.933594 338.300781 667.019531 341.484375 C 660.695312 343.230469 653.796875 343.1875 647.515625 342.199219 C 641.148438 341.167969 635.191406 339.332031 629.265625 337.988281 C 623.394531 336.601562 617.429688 335.75 611.78125 336.691406 C 606.128906 337.628906 600.972656 340.585938 597.027344 344.800781 C 588.957031 353.355469 586.179688 365.902344 588.195312 377.597656 C 590.167969 389.421875 595.816406 400.488281 602.632812 410.570312 C 609.492188 420.652344 617.699219 429.839844 626.800781 438.042969 C 644.957031 454.570312 665.847656 467.785156 686.796875 480.871094 L 684.328125 484.414062 C 666.261719 471.191406 647.828125 458.425781 629.085938 446.199219 C 619.671875 440.09375 610.210938 434.097656 600.660156 428.269531 C 591.066406 422.535156 581.648438 416.261719 571.785156 412.324219 C 561.921875 408.242188 551.160156 407.347656 542.285156 411.957031 C 533.183594 416.261719 528.96875 426.03125 532.507812 435.175781 C 535.691406 444.441406 543.988281 451.039062 553.714844 455.109375 C 563.445312 459.226562 574.519531 462.140625 585.148438 465.640625 C 606.535156 472.222656 627.875 478.761719 649.570312 483.554688 C 660.339844 486.023438 671.046875 488.085938 680.378906 485.894531 C 682.710938 485.355469 684.867188 484.585938 686.875 483.476562 C 689.035156 482.304688 691.5 480.652344 694.726562 479.253906 C 697.6875 477.867188 703.152344 476.523438 707.902344 479.390625 C 712.667969 482.398438 714.226562 487.054688 714.457031 491.136719 C 714.8125 500.234375 708.441406 506.863281 701.453125 509.546875 C 697.859375 510.933594 693.554688 511.335938 689.390625 509.996094 C 685.222656 508.789062 681.628906 505.554688 679.75 501.886719 C 676.074219 494.496094 676.832031 486.160156 681.953125 479.484375 C 687.738281 472.453125 697.78125 471.960938 704.324219 474.953125 C 711.050781 477.648438 716.433594 483.554688 719.070312 489.613281 C 721.851562 495.703125 722.882812 501.886719 723.730469 507.527344 L 728.53125 540.871094 L 747.582031 674.121094 C 750.636719 696.339844 753.816406 718.476562 756.375 740.96875 C 758.980469 763.414062 759.335938 786.757812 755.574219 809.296875 C 752.070312 831.835938 746.070312 853.511719 741.226562 875.339844 C 736.242188 897.113281 731.984375 919.109375 728.402344 941.203125 C 721.355469 985.375 715.984375 1029.914062 713.78125 1074.726562 L 712.667969 1074.679688 C 713.285156 1029.785156 716.019531 984.800781 722.527344 940.308594 C 725.707031 918.03125 729.515625 895.816406 734.003906 873.769531 C 738.445312 851.679688 743.957031 829.953125 746.871094 808.046875 C 753.550781 764.308594 742.074219 720.171875 736.199219 675.773438 L 716.648438 542.570312 L 711.761719 509.328125 C 710.28125 498.476562 707.238281 489.117188 699.664062 486.066406 C 696.070312 484.496094 692.660156 485.171875 691.101562 487.101562 C 689.21875 489.210938 688.679688 493.820312 690.160156 496.425781 C 691.410156 498.972656 694.003906 499.820312 697.414062 498.707031 C 700.777344 497.539062 703.335938 494.175781 703.070312 491.757812 C 703.105469 490.324219 702.257812 489.117188 702.128906 489.164062 C 701.902344 488.980469 701.222656 488.808594 699.125 489.613281 C 697.148438 490.414062 694.957031 491.847656 692.167969 493.328125 C 689.21875 494.898438 686.027344 496.011719 682.894531 496.734375 C 670.070312 499.464844 658.101562 496.550781 647.148438 494.085938 C 625.050781 488.890625 603.394531 482.257812 582.097656 475.089844 C 571.472656 471.328125 560.800781 468.414062 549.90625 463.574219 C 539.234375 458.871094 528.292969 450.359375 524.394531 437.859375 C 522.375 431.8125 522.242188 424.644531 525.066406 418.417969 C 527.84375 412.234375 533.09375 407.65625 538.789062 404.925781 C 550.265625 399.191406 563.894531 400.9375 574.476562 405.648438 C 585.414062 410.308594 594.605469 416.84375 604.113281 422.765625 C 613.617188 428.855469 622.988281 435.082031 632.273438 441.402344 C 650.878906 454.078125 669.085938 467.289062 686.921875 480.964844 L 684.453125 484.542969 C 663.65625 471.238281 642.628906 457.714844 624.289062 440.773438 C 615.097656 432.351562 606.800781 422.855469 599.71875 412.542969 C 592.679688 402.289062 586.625 390.898438 584.382812 378.222656 C 582.007812 365.722656 584.878906 351.609375 593.890625 341.886719 C 598.285156 337.046875 604.425781 333.417969 610.972656 332.296875 C 617.5625 331.179688 624.15625 332.027344 630.300781 333.238281 C 642.535156 335.972656 654.289062 339.289062 665.539062 335.839844 C 676.75 332.746094 686.300781 325.039062 695.035156 316.707031 C 703.875 308.328125 712.207031 299.050781 721.894531 290.808594 C 726.832031 286.777344 731.9375 282.789062 737.816406 279.785156 C 743.554688 276.515625 750.371094 274.277344 757.71875 274.542969 C 765.074219 274.542969 773.546875 279.5625 776.058594 287.359375 C 778.792969 295.019531 777.183594 302.234375 775.429688 308.507812 C 771.261719 321.007812 766.648438 331.761719 762.46875 343.589844 C 745.699219 389.867188 730.550781 436.78125 717.726562 484.375 L 712.699219 478.546875 C 723.824219 477.375 733.957031 470.574219 742.121094 461.742188 C 750.417969 452.957031 757.179688 442.519531 764.316406 432.035156 L 807.222656 369.582031 L 828.699219 338.394531 C 832.109375 333.109375 836.226562 328.046875 838.789062 322.894531 C 841.429688 317.738281 842.414062 311.421875 838.109375 308.691406 C 833.945312 305.957031 827.355469 307.839844 821.480469 309.496094 C 815.476562 311.199219 809.554688 313.257812 803.8125 315.722656 C 792.289062 320.652344 781.398438 327.015625 771.398438 334.675781 L 770.675781 333.78125 " fill-opacity="1" fill-rule="nonzero"/><path fill="#040505" d="M 617.292969 465.28125 C 624.246094 463.621094 630.164062 464.421875 635.546875 467.117188 C 638.140625 468.691406 640.390625 471.375 643.167969 472.578125 C 645.851562 473.886719 648.953125 474.011719 652.039062 473.886719 C 658.410156 473.347656 664.242188 474.242188 669.980469 475.628906 C 675.582031 477.601562 681.011719 480.207031 686.074219 485.082031 L 685.808594 486.203125 C 679.207031 488.53125 672.976562 488.441406 667.019531 487.5 C 661.140625 485.976562 655.449219 483.785156 650.339844 479.929688 C 647.691406 478.140625 645.050781 476.570312 642.042969 476.121094 C 639.082031 475.582031 635.671875 476.433594 632.585938 476.214844 C 626.574219 475.183594 621.195312 472.085938 616.890625 466.351562 L 617.292969 465.28125 " fill-opacity="1" fill-rule="nonzero"/><path fill="#040505" d="M 702.980469 487.097656 C 705.847656 479.792969 709.925781 474.644531 715.261719 470.570312 C 718.085938 468.691406 721.757812 467.519531 724.273438 465.238281 C 726.832031 463 728.484375 459.902344 729.792969 456.679688 C 732.214844 450.003906 735.441406 444.269531 738.894531 438.613281 C 742.832031 433.292969 747.136719 428.222656 753.367188 423.65625 L 754.402344 424.105469 C 754.804688 431.90625 752.566406 438.84375 749.292969 445.117188 C 745.527344 451.070312 740.867188 456.542969 734.714844 460.582031 C 731.765625 462.679688 729.023438 464.835938 727.050781 467.703125 C 725.039062 470.523438 724.007812 474.289062 722.035156 477.292969 C 717.683594 482.890625 711.542969 486.835938 703.691406 487.992188 L 702.980469 487.097656 " fill-opacity="1" fill-rule="nonzero"/><path fill="#040505" d="M 664.859375 434.542969 C 669.625 437.640625 671.769531 440.816406 672.308594 444.808594 C 672.308594 446.863281 671.367188 449.417969 671.863281 451.394531 C 672.308594 453.410156 673.835938 454.925781 675.671875 456.234375 C 679.53125 458.652344 682.042969 461.519531 684.328125 464.652344 C 686.117188 468.105469 687.460938 471.820312 687.507812 477.339844 L 686.65625 478.09375 C 681.136719 477.601562 677.28125 474.953125 674.332031 471.730469 C 671.863281 468.152344 670.070312 463.976562 670.105469 459.148438 C 669.980469 456.808594 669.75 454.660156 668.5 452.917969 C 667.28125 451.164062 664.78125 449.914062 663.347656 448.125 C 661.015625 444.394531 660.785156 439.691406 663.746094 434.808594 L 664.859375 434.542969 " fill-opacity="1" fill-rule="nonzero"/><path fill="#040505" d="M 701.097656 481.546875 C 699.261719 475.628906 699.296875 471.28125 700.960938 466.980469 C 702.085938 464.882812 704.230469 462.816406 704.769531 460.488281 C 705.402344 458.160156 704.722656 455.695312 703.738281 453.410156 C 701.363281 448.835938 700.203125 444.578125 699.214844 440.230469 C 698.765625 435.746094 698.722656 431.226562 700.15625 425.355469 L 701.222656 424.910156 C 706.605469 427.914062 709.566406 432.617188 711.1875 437.640625 C 712.253906 442.746094 712.207031 448.203125 710.015625 453.320312 C 709.027344 455.867188 708.226562 458.285156 708.488281 460.753906 C 708.628906 463.265625 710.152344 465.996094 710.371094 468.691406 C 710.324219 473.929688 707.6875 478.945312 702.164062 481.996094 L 701.097656 481.546875 " fill-opacity="1" fill-rule="nonzero"/><g clip-path="url(#965bd0bf7a)"><path fill="#040505" d="M 951.148438 608.523438 C 946.84375 592.347656 940.75 575.808594 928.328125 565.109375 C 922.175781 559.957031 914.832031 556.183594 907.027344 554.625 C 899.359375 552.914062 891.335938 554.039062 886.492188 559.1875 C 881.511719 564.304688 879.316406 572.449219 876.539062 580.433594 C 873.761719 588.402344 871.25 596.328125 869.273438 604.359375 C 865.417969 620.300781 864.386719 637.015625 870.445312 651.445312 L 863.042969 649.160156 C 886.675781 633.160156 912.085938 619.945312 938.371094 609.015625 C 945.054688 606.503906 951.367188 603.589844 958.988281 601.800781 C 962.761719 600.996094 966.839844 600.503906 971.144531 601.398438 C 975.402344 602.15625 979.660156 604.851562 982.082031 608.523438 C 990.472656 623.261719 985.984375 639.972656 977.683594 651.84375 C 969.261719 664.082031 956.347656 672.363281 942.847656 677.078125 C 929.269531 681.953125 915.324219 684.28125 901.332031 686.976562 C 894.25 687.964844 886.9375 688.503906 879.628906 687.148438 C 872.453125 685.992188 864.785156 681.910156 861.25 674.738281 C 857.613281 667.570312 858.199219 659.738281 858.601562 652.785156 C 859.011719 645.707031 859.585938 638.675781 860.265625 631.601562 C 861.699219 617.527344 863.582031 603.417969 866.050781 589.480469 C 868.515625 575.683594 871.25 561.746094 866.632812 550.140625 C 864.386719 544.359375 860.527344 539.300781 855.558594 536.789062 C 850.667969 534.195312 844.746094 534.414062 839.28125 536.523438 C 827.929688 540.824219 821.296875 552.46875 819.289062 565.371094 C 815.558594 591.71875 820.445312 619.902344 830.351562 644.953125 C 835.332031 657.363281 842.371094 670.035156 849.945312 679.945312 C 851.746094 681.78125 852.460938 682 854.296875 681.910156 C 856.050781 681.734375 858.289062 680.566406 859.632812 678.960938 C 862.503906 675.726562 863.304688 669.496094 862.730469 663.097656 L 868.070312 668.386719 C 858.921875 667.492188 850.4375 667.535156 846.546875 672.59375 C 844.480469 675.199219 843.894531 677.699219 845.113281 679.945312 C 845.777344 681.378906 847.304688 683.214844 848.738281 685.945312 C 850.3125 688.722656 850.886719 692.929688 850.128906 696.074219 C 848.554688 702.472656 844.976562 706.28125 842.507812 710.054688 L 834.347656 721.527344 L 817.933594 744.375 C 806.902344 759.515625 795.746094 774.65625 784.222656 789.488281 C 772.558594 804.238281 760.496094 818.65625 748.125 832.773438 L 747.226562 832.050781 C 769.875 802.125 790.808594 771.121094 811.4375 739.84375 L 826.910156 716.410156 L 834.703125 704.675781 C 837.355469 700.683594 839.949219 697.058594 840.394531 694.148438 C 840.625 692.667969 840.488281 691.992188 839.777344 690.648438 C 839.050781 689.261719 837.480469 687.472656 835.964844 684.742188 C 834.347656 682 833.589844 677.929688 834.207031 674.660156 C 834.792969 671.253906 836.273438 668.339844 838.15625 665.917969 C 841.921875 660.894531 848.15625 658.027344 853.539062 657.222656 C 859.046875 656.285156 864.210938 656.546875 868.917969 656.914062 L 873.886719 657.269531 L 874.210938 662.203125 C 874.703125 669.542969 874.828125 678.683594 868.425781 686.578125 C 865.234375 690.246094 860.894531 692.851562 855.648438 693.515625 C 850.40625 694.546875 843.988281 691.417969 841.257812 687.828125 C 831.570312 675.460938 824.933594 663.144531 819.195312 649.515625 C 808.074219 622.414062 803.90625 592.84375 808.335938 563.363281 C 809.738281 555.964844 812.285156 548.394531 816.773438 541.765625 C 821.296875 535 827.851562 529.617188 835.597656 526.75 C 843.183594 523.839844 852.6875 523.746094 860.265625 528.140625 C 867.839844 532.347656 872.683594 539.5625 875.277344 546.917969 C 880.707031 562.332031 876.585938 577.519531 873.625 590.960938 C 870.570312 604.621094 868.023438 618.421875 866.09375 632.3125 C 865.152344 639.261719 864.339844 646.203125 863.628906 653.199219 C 862.949219 660.136719 862.285156 667.078125 865.0625 672.8125 C 867.839844 678.59375 873.84375 682.046875 880.398438 683.261719 C 886.984375 684.605469 893.976562 684.203125 900.839844 683.34375 C 914.554688 681.152344 928.546875 678.285156 941.460938 673.351562 C 954.328125 668.429688 966.390625 660.722656 973.425781 649.070312 C 977.019531 643.378906 979.441406 637.015625 980.0625 630.523438 C 980.648438 624.246094 979.53125 617.125 976.296875 612.640625 C 973.117188 608.292969 967.101562 607.9375 960.871094 609.644531 C 954.820312 611.34375 948.324219 614.613281 941.953125 617.355469 C 916.402344 628.6875 892 642.394531 868.5625 657.5 L 863.398438 660.816406 L 861.160156 655.207031 C 854.25 637.738281 856.144531 618.867188 860.480469 602.203125 C 862.6875 593.738281 865.464844 585.582031 868.425781 577.5625 C 871.558594 569.855469 874.027344 560.898438 881.292969 553.808594 C 888.777344 546.605469 899.945312 546.066406 908.460938 548.441406 C 917.207031 550.679688 925.320312 555.070312 931.726562 561.390625 C 944.46875 574.25 949.574219 591.671875 952.261719 608.292969 L 951.148438 608.523438 " fill-opacity="1" fill-rule="nonzero"/></g><path fill="#040505" d="M 842.058594 607.71875 C 844.253906 613.71875 844.4375 618.292969 843 622.90625 C 842.015625 625.1875 839.992188 627.515625 839.636719 629.984375 C 839.144531 632.496094 839.949219 635.007812 841.164062 637.335938 C 843.894531 641.945312 845.378906 646.339844 846.71875 650.777344 C 847.121094 653.105469 847.535156 655.433594 847.570312 657.992188 C 847.660156 659.152344 847.800781 660.769531 847.535156 661.753906 C 847.441406 662.15625 846.996094 661.925781 846.089844 662.421875 C 845.113281 662.914062 845.46875 663.589844 845.640625 663.5 C 845.605469 663.453125 846.582031 663.898438 846.628906 663.453125 L 846.054688 662.464844 C 846.132812 662.15625 847.074219 662.019531 847.488281 662.421875 C 847.890625 662.742188 848.0625 663.097656 848.15625 663.40625 C 848.382812 663.945312 848.476562 665.378906 846.8125 666.054688 C 844.574219 666.722656 843.140625 665.242188 842.460938 664.667969 C 841.074219 663.359375 840.269531 662.605469 839.234375 661.433594 C 837.355469 659.289062 836.058594 656.824219 835.023438 654.265625 C 833.496094 649.023438 833.09375 643.335938 834.933594 637.875 C 835.691406 635.132812 836.273438 632.539062 835.917969 629.9375 C 835.5625 627.390625 833.898438 624.601562 833.496094 621.828125 C 833.222656 616.367188 835.597656 610.941406 840.980469 607.351562 L 842.058594 607.71875 " fill-opacity="1" fill-rule="nonzero"/><path fill="#040505" d="M 870.308594 670.804688 C 875.644531 667.308594 880.570312 666.628906 885.367188 667.664062 C 887.707031 668.429688 890.164062 670.3125 892.632812 670.53125 C 895.101562 670.886719 897.523438 669.945312 899.714844 668.601562 C 904.066406 665.644531 908.011719 663.855469 911.914062 661.972656 C 916.035156 660.585938 920.078125 659.507812 926.078125 658.304688 L 926.929688 659.058594 C 926.355469 665.425781 922.003906 670.21875 917.113281 673.042969 C 911.960938 675.460938 906.175781 676.355469 900.609375 674.832031 C 897.878906 674.210938 895.328125 673.71875 892.769531 674.246094 C 890.257812 674.738281 887.664062 676.585938 885.058594 677.207031 C 879.8125 677.929688 874.785156 676.3125 870.167969 671.917969 L 870.308594 670.804688 " fill-opacity="1" fill-rule="nonzero"/><path fill="#040505" d="M 888.511719 612.960938 C 887.972656 618.15625 886.753906 620.796875 884.023438 622.550781 C 882.496094 623.214844 880.039062 623.351562 878.777344 624.523438 C 877.480469 625.683594 877.207031 627.515625 877.296875 629.398438 C 877.792969 633.296875 877.34375 636.210938 876.632812 639.125 C 875.324219 641.902344 873.578125 644.503906 869.8125 647.820312 L 868.6875 647.773438 C 865.0625 644.183594 864.292969 639.882812 864.785156 635.949219 C 865.867188 632.183594 867.976562 628.59375 871.742188 626.402344 C 873.53125 625.28125 875.058594 624.15625 875.738281 622.414062 C 876.449219 620.75 876.136719 618.15625 876.851562 616.230469 C 878.6875 612.777344 882.679688 610.757812 887.835938 612.019531 L 888.511719 612.960938 " fill-opacity="1" fill-rule="nonzero"/></svg>